HIERARCHY
ROOT Hips
{
	OFFSET -183.429703 89.960052 22.660780
	CHANNELS 6 Xposition Yposition Zposition Zrotation Yrotation Xrotation 
	JOINT RightUpLeg
	{
		OFFSET 0.103454 1.857828 10.548502
		CHANNELS 3 Xrotation Yrotation Zrotation
		JOINT RightLeg
		{
			OFFSET 43.500000 -0.000023 -0.000008
			CHANNELS 3 Xrotation Yrotation Zrotation
			JOINT RightFoot
			{
				OFFSET 42.372192 0.000008 0.000008
				CHANNELS 3 Xrotation Yrotation Zrotation
				JOINT RightToe
				{
					OFFSET 17.299997 -0.000001 0.000000
					CHANNELS 3 Xrotation Yrotation Zrotation
					End Site
					{
						OFFSET 0.000000 0.000000 0.000000
					}
				}
			}
		}
	}
	JOINT LeftUpLeg
	{
		OFFSET 0.103459 1.857828 -10.548505
		CHANNELS 3 Xrotation Yrotation Zrotation
		JOINT LeftLeg
		{
			OFFSET 43.500046 -0.000027 0.000015
			CHANNELS 3 Xrotation Yrotation Zrotation
			JOINT LeftFoot
			{
				OFFSET 42.372261 -0.000008 0.000019
				CHANNELS 3 Xrotation Yrotation Zrotation
				JOINT LeftToe
				{
					OFFSET 17.299992 -0.000006 -0.000002
					CHANNELS 3 Xrotation Yrotation Zrotation
					End Site
					{
						OFFSET 0.000000 0.000000 0.000000
					}
				}
			}
		}
	}
	JOINT Spine
	{
		OFFSET 6.901967 -2.603729 0.000006
		CHANNELS 3 Xrotation Yrotation Zrotation
		JOINT Spine1
		{
			OFFSET 12.588098 -0.000001 -0.000005
			CHANNELS 3 Xrotation Yrotation Zrotation
			JOINT Spine2
			{
				OFFSET 12.343207 0.000001 -0.000003
				CHANNELS 3 Xrotation Yrotation Zrotation
				JOINT Neck
				{
					OFFSET 25.832897 -0.000006 -0.000001
					CHANNELS 3 Xrotation Yrotation Zrotation
					JOINT Head
					{
						OFFSET 11.766602 0.000010 0.000005
						CHANNELS 3 Xrotation Yrotation Zrotation
						End Site
						{
							OFFSET 0.000000 0.000000 0.000000
						}
					}
				}
				JOINT RightShoulder
				{
					OFFSET 19.745901 -1.480368 6.000114
					CHANNELS 3 Xrotation Yrotation Zrotation
					JOINT RightArm
					{
						OFFSET 11.284125 -0.000009 -0.000026
						CHANNELS 3 Xrotation Yrotation Zrotation
						JOINT RightForeArm
						{
							OFFSET 33.000046 0.000005 0.000037
							CHANNELS 3 Xrotation Yrotation Zrotation
							JOINT RightHand
							{
								OFFSET 25.200003 0.000016 -0.000001
								CHANNELS 3 Xrotation Yrotation Zrotation
								End Site
								{
									OFFSET 0.000000 0.000000 0.000000
								}
							}
						}
					}
				}
				JOINT LeftShoulder
				{
					OFFSET 19.746088 -1.480377 -6.000074
					CHANNELS 3 Xrotation Yrotation Zrotation
					JOINT LeftArm
					{
						OFFSET 11.284132 -0.000015 -0.000021
						CHANNELS 3 Xrotation Yrotation Zrotation
						JOINT LeftForeArm
						{
							OFFSET 33.000107 0.000015 0.000018
							CHANNELS 3 Xrotation Yrotation Zrotation
							JOINT LeftHand
							{
								OFFSET 25.199774 0.000138 0.000420
								CHANNELS 3 Xrotation Yrotation Zrotation
								End Site
								{
									OFFSET 0.000000 0.000000 0.000000
								}
							}
						}
					}
				}
			}
		}
	}
}
MOTION
Frames: 15
Frame Time: 0.033333
-67.574043 81.188759 337.079712 100.685499 2.513272 64.027955 138.388566 2.558593 -179.902005 -26.785021 1.483191 -5.315129 57.198272 -3.616465 -16.207976 21.454558 0.003115 0.000018 -165.797856 3.668700 -168.014758 -80.317554 -4.057152 2.622626 69.805182 -0.894765 2.523212 21.454557 -0.003094 0.000001 6.749916 -2.315951 2.109031 3.404723 -4.691931 4.153443 3.086375 -4.666933 4.181671 4.699072 -14.893477 5.684590 -26.220821 14.383731 -3.375118 -162.345837 -78.771909 -19.444305 54.954999 40.098190 49.500136 -111.878307 -1.221687 3.402483 -9.386736 2.139360 15.833272 -125.586237 87.169524 56.295946 42.437673 -52.101318 -37.121761 -133.102205 -4.893879 -3.773091 -4.634570 6.751666 2.082168 
-71.187393 79.774979 348.093414 101.653910 6.356082 66.297982 138.247209 6.626016 175.147197 -46.527273 2.366819 -2.672495 73.156039 -0.832159 -8.842771 21.454560 0.003113 0.000020 -169.921255 9.082608 -163.763689 -95.524683 -4.370653 6.467772 72.328438 -3.392207 3.262158 21.454562 -0.003096 -0.000003 7.416614 -2.661290 0.913175 4.785370 -5.357656 1.718151 4.465908 -5.347333 1.750553 6.330249 -11.884107 4.917241 -27.922133 12.461769 -2.762735 -162.446774 -78.106020 -19.347896 46.726437 40.769935 44.349757 -108.327299 -1.304320 3.254274 -8.879197 2.029713 15.780860 -130.590922 85.535244 51.366031 47.526403 -57.704143 -48.624748 -127.026711 -4.001812 -3.609872 -5.178281 6.647633 -9.680195 
-74.758453 78.473137 358.238495 100.799399 7.897078 66.814939 141.100739 6.774598 173.278143 -59.409238 2.689237 -1.938699 87.327076 -0.064326 -7.741241 21.454562 0.003114 0.000017 179.832215 13.163608 -162.731866 -108.455010 -4.503153 6.786597 75.630336 -5.408537 -2.682715 21.454555 -0.003088 0.000006 7.973747 -2.578145 0.072334 5.940348 -5.156515 0.012715 5.620851 -5.156470 0.043937 6.041810 -9.379273 4.374432 -28.597034 10.870005 -2.253635 -170.437317 -77.252247 -11.199095 34.669706 42.577774 35.883601 -101.056699 -1.692970 2.959989 -7.902593 1.391727 17.824419 -138.099964 83.443390 43.910064 51.020256 -61.033771 -55.669781 -116.268207 -2.976428 -3.249141 -5.764624 6.567339 -21.975852 
-78.495819 78.946579 366.915588 98.491676 7.060711 64.098996 146.555588 3.056006 170.626281 -64.033597 2.898105 -1.864999 95.625654 0.486057 -6.970833 21.454558 0.003108 0.000017 162.682047 11.702897 -167.070020 -113.733708 -4.105214 5.903877 77.681012 -5.324579 -4.879530 21.454545 -0.003095 0.000001 8.200013 -1.972993 -0.308552 6.403375 -3.925896 -0.725890 6.084490 -3.930336 -0.702138 4.976942 -8.492470 4.582870 -27.885781 10.326745 -1.633680 -178.042773 -76.841766 -3.429304 24.165187 45.613738 28.036668 -94.910301 -2.256986 2.724367 -7.313400 0.738613 22.092310 -141.655050 83.016489 40.339958 49.037487 -61.593908 -56.737067 -107.524799 -1.933569 -2.947141 -5.957118 5.869966 -28.700817 
-82.464211 80.518883 375.384491 96.696545 5.578801 58.520993 153.548813 -0.926302 165.290059 -64.289422 3.277578 -3.124963 98.727980 1.513646 -6.411670 21.454558 0.003119 0.000020 145.748642 5.650497 -172.421883 -108.982806 -3.565340 6.488443 74.265562 -5.012114 -1.795065 21.454553 -0.003089 -0.000005 8.069059 -1.332256 -0.416029 6.137274 -2.640604 -0.902079 5.818848 -2.646140 -0.886104 4.289586 -9.082511 5.826495 -26.194855 10.320150 -0.312506 -178.724180 -77.168372 -2.739106 19.426899 49.069377 24.968747 -94.201149 -2.332172 2.697850 -8.226518 -0.447715 24.388439 -139.097964 84.385143 42.860038 44.225741 -58.142320 -55.836390 -105.404306 -1.707655 -2.869958 -5.879056 4.967333 -28.582723 
-86.800308 82.383888 384.722992 96.674299 5.637638 53.439943 160.051618 -1.524592 160.482890 -64.915026 3.419440 -3.891540 91.737896 1.900895 -4.585928 21.454555 0.003107 0.000020 136.100153 1.214100 -176.095186 -95.372725 -2.918235 6.629677 74.119389 -5.216020 -2.027167 21.454558 -0.003095 -0.000001 7.839703 -1.106300 -0.722574 5.681843 -2.175916 -1.498571 5.363617 -2.185054 -1.485406 4.279309 -9.729955 7.516601 -24.424432 9.453493 1.908463 -175.806296 -77.792351 -5.725301 20.057542 51.505353 27.212440 -98.421216 -1.683969 2.841605 -10.026701 -2.437213 21.146238 -129.160940 85.492064 52.806050 41.085388 -52.307890 -55.061707 -108.743804 -2.343678 -2.971786 -5.585398 4.156199 -23.839437 
-91.683144 84.524963 394.870789 96.934284 6.955436 50.715944 165.576544 0.239500 159.518768 -65.364849 4.000087 -2.770387 75.845303 0.324875 -5.338909 21.454565 0.003114 0.000017 134.577703 -1.277599 -176.874893 -74.547581 -3.176546 8.300513 74.885238 -6.222353 -1.364965 21.454551 -0.003088 -0.000001 7.688448 -1.075866 -1.233372 5.387939 -2.093445 -2.515609 5.069956 -2.108729 -2.502925 5.045103 -9.519726 8.836223 -23.321336 7.424083 4.386621 -176.249589 -78.600185 -5.284004 22.540582 52.488487 31.848264 -104.149299 -0.888437 3.041402 -10.921054 -3.725694 15.042966 -121.390193 85.241854 60.635045 40.783568 -46.719232 -53.922475 -113.445392 -3.113553 -3.120772 -4.887943 3.842603 -18.096474 
-97.012154 86.082367 405.464111 97.205306 8.775395 49.510006 170.460116 2.260496 161.581089 -67.040171 4.329390 -0.919653 63.243085 -4.493391 -12.266270 21.454563 0.003104 0.000016 138.852200 -1.574005 -175.685183 -49.093781 -3.802539 5.360609 72.895003 -4.775723 -3.206612 21.454551 -0.003094 -0.000000 7.504751 -1.157526 -1.663504 5.030686 -2.242114 -3.376052 4.712915 -2.262590 -3.362469 6.989370 -8.843083 9.409978 -23.232182 5.265856 6.236572 179.232456 -79.650633 -0.704928 24.749865 52.519316 36.842283 -109.222607 -0.408246 3.231010 -10.412272 -2.901841 11.652394 -118.338027 84.627902 63.747091 43.273958 -41.687851 -53.208837 -117.408998 -3.703660 -3.246696 -4.219552 4.529604 -15.126926 
-102.308998 86.660728 415.794891 97.406141 9.890166 48.510008 172.992559 4.075501 164.844020 -70.735871 3.896808 -1.487502 60.077791 -5.894650 -15.461095 21.454563 0.003102 0.000019 143.917331 -1.819299 -174.788311 -25.771269 -2.544094 2.027504 62.130358 -1.092389 0.939446 21.454553 -0.003094 -0.000000 7.096785 -1.224300 -1.760929 4.218785 -2.384197 -3.565632 3.901056 -2.405806 -3.551193 9.977016 -8.460729 9.204211 -23.740966 3.891095 6.946381 174.164141 -80.777936 4.413687 25.743919 51.932295 41.373365 -113.738298 -0.292176 3.417504 -9.288157 -0.553366 12.678664 -111.506991 84.621775 70.614034 47.710094 -37.064363 -53.683849 -121.088298 -4.004699 -3.376635 -4.089612 5.907786 -15.272272 
-107.193604 85.955429 425.577515 97.808288 10.946575 47.161992 172.728804 5.328506 166.705260 -77.087475 3.287527 -4.372834 64.480995 -3.269797 -15.891456 21.454558 0.003104 0.000011 146.402591 -2.220094 -173.505014 -14.861479 -1.477481 1.213852 53.078223 2.815361 7.300380 21.454551 -0.003090 0.000000 6.626644 -1.404502 -1.493243 3.277969 -2.766772 -3.025932 2.959939 -2.785124 -3.009184 12.631459 -8.359317 8.471846 -23.813554 3.276077 6.702253 170.522516 -81.995014 8.065305 25.762977 50.926539 44.846879 -118.468607 -0.373109 3.621516 -8.686550 1.808916 15.968957 -99.044047 84.955539 83.106347 52.477546 -33.065205 -54.899869 -125.140199 -4.030430 -3.535352 -4.399944 6.879513 -15.612455 
-111.776497 84.273239 434.721985 96.845655 11.927072 45.281002 169.881899 4.306594 165.633371 -84.717179 3.528818 -9.044397 68.691786 1.276007 -14.366888 21.454553 0.003107 0.000019 146.301300 -3.891207 -168.649200 -19.439697 -1.669289 0.221917 49.791731 -1.348498 -1.985627 21.454553 -0.003093 -0.000000 6.530527 -1.404350 -0.975215 3.073269 -2.782708 -1.987320 2.754961 -2.794800 -1.970487 13.189498 -7.851843 7.713648 -23.026811 2.779650 6.227356 171.331498 -82.911660 7.216374 25.348657 49.894849 46.035926 -123.377505 -0.371882 3.820065 -9.263466 2.958264 17.949309 -88.812998 84.878754 93.387127 55.154133 -31.507809 -55.593000 -128.938399 -4.013326 -3.681132 -4.862983 6.939359 -13.945084 
-116.279701 81.464523 443.357391 94.317775 12.705980 43.510009 165.442427 0.047804 164.416437 -92.082350 4.215792 -12.142674 74.314664 5.107485 -11.221826 21.454555 0.003104 0.000016 146.603904 -5.672295 -164.736691 -34.341003 -2.440407 0.850363 67.944427 -10.075566 -25.652720 21.454551 -0.003088 0.000000 6.956706 -1.076643 -0.537544 3.911584 -2.134664 -1.110940 3.593300 -2.141471 -1.098026 11.140036 -7.010910 7.215603 -22.097236 2.200282 5.873789 -176.993547 -82.308438 -4.579628 24.272035 48.757657 43.866555 -126.283395 -0.125843 3.916578 -10.598522 2.040124 15.921591 -87.715031 84.313863 94.542181 54.181729 -34.318951 -55.396328 -130.241899 -4.030368 -3.728195 -5.437648 6.566666 -12.143908 
-120.790604 79.288292 451.087189 90.746604 11.957571 41.613044 158.406717 -5.469492 167.078353 -95.305714 4.531257 -12.853487 77.861814 6.534617 -8.832782 21.454558 0.003110 0.000017 145.814895 -8.712996 -166.200291 -50.163430 -3.599652 6.369517 82.635283 -10.139451 -25.973304 21.454553 -0.003089 0.000000 7.588402 -0.326450 -0.162410 5.165010 -0.645312 -0.339114 4.846893 -0.647488 -0.335224 8.079613 -6.857013 6.761445 -21.776598 2.129971 5.205751 -164.698387 -79.687728 -17.043347 21.934140 48.926076 39.012780 -123.724997 0.010511 3.807384 -11.480009 -0.826783 11.889957 -95.640987 84.139905 86.596943 50.497081 -42.530393 -53.925751 -126.549909 -3.859211 -3.601349 -6.077068 6.214649 -14.583501 
-125.200401 77.781487 458.601410 88.410399 11.652291 40.854005 150.664261 -7.967102 172.636829 -92.162932 4.447646 -12.004630 81.288253 6.607625 -6.930320 21.454558 0.003102 0.000015 146.806228 -9.011907 -169.783026 -62.588671 -1.914246 8.443842 91.068073 -8.708743 -21.021642 21.454551 -0.003094 -0.000000 8.120503 0.191399 -0.002664 6.228199 0.382709 0.004942 5.910113 0.382603 0.002627 6.512144 -7.718495 5.903307 -22.066260 3.006848 3.674755 -160.647238 -77.459263 -21.190310 20.240757 51.539204 34.697631 -115.343604 -0.413894 3.493964 -11.301443 -3.894710 11.236951 -110.593938 84.898268 71.509116 47.229549 -52.874175 -51.367162 -118.563901 -3.273640 -3.323855 -6.642554 5.991905 -22.025948 
-129.587097 77.338577 466.019501 87.962216 12.893321 41.400027 145.215696 -5.795301 176.865344 -81.021651 5.354831 -11.558568 81.790375 6.305098 -7.143259 21.454562 0.003103 0.000018 150.818814 -5.367790 -169.696801 -69.925489 -0.907465 8.315300 97.639432 -7.109800 -18.647531 21.454551 -0.003084 0.000001 8.416790 0.115611 -0.006899 6.820723 0.231478 -0.006986 6.502629 0.231299 -0.008395 7.455361 -8.441593 4.390428 -22.652713 4.464402 1.420381 -161.644322 -77.579823 -20.171579 20.891747 55.936036 32.457892 -106.219298 -0.998898 3.140541 -10.781308 -5.219585 14.911070 -130.286965 85.370473 51.681036 46.868847 -61.629405 -50.144367 -111.099802 -2.427606 -3.067826 -7.286453 6.228251 -29.896814 
